<?xml version="1.0" encoding="UTF-8" standalone="no"?><!-- Generator: Gravit.io --><svg xmlns="http://www.w3.org/2000/svg" xmlns:xlink="http://www.w3.org/1999/xlink" style="isolation:isolate" viewBox="0 0 1024 768" width="1024pt" height="768pt"><defs><clipPath id="_clipPath_hq2sZdzPiMOUNxFwqOBPSgrrXjAK3H78"><rect width="1024" height="768"/></clipPath></defs><g clip-path="url(#_clipPath_hq2sZdzPiMOUNxFwqOBPSgrrXjAK3H78)"><path d="M 223.283 139.772 L 260.717 139.772 C 262.492 139.772 263.933 141.213 263.933 142.989 L 263.933 703.783 C 263.933 705.559 262.492 707 260.717 707 L 223.283 707 C 221.508 707 220.067 705.559 220.067 703.783 L 220.067 142.989 C 220.067 141.213 221.508 139.772 223.283 139.772 Z" style="fill:none;stroke:#000000;stroke-width:10;stroke-linecap:square;stroke-miterlimit:2;"/><polygon points="261.743,139.772,222.257,194.544,222.257,85" fill="none" vector-effect="non-scaling-stroke" stroke-width="10" stroke="rgb(0,0,0)" stroke-linejoin="miter" stroke-linecap="square" stroke-miterlimit="4"/><polygon points="72,97.029,126.772,136.515,17.228,136.515" fill="none" vector-effect="non-scaling-stroke" stroke-width="10" stroke="rgb(0,0,0)" stroke-linejoin="miter" stroke-linecap="square" stroke-miterlimit="4"/><polygon points="160,96.029,214.772,135.515,105.228,135.515" fill="none" vector-effect="non-scaling-stroke" stroke-width="10" stroke="rgb(0,0,0)" stroke-linejoin="miter" stroke-linecap="square" stroke-miterlimit="4"/><polygon points="314,96.029,368.772,135.515,259.228,135.515" fill="none" vector-effect="non-scaling-stroke" stroke-width="10" stroke="rgb(0,0,0)" stroke-linejoin="miter" stroke-linecap="square" stroke-miterlimit="4"/><polygon points="435,96.029,489.772,135.515,380.228,135.515" fill="none" vector-effect="non-scaling-stroke" stroke-width="10" stroke="rgb(0,0,0)" stroke-linejoin="miter" stroke-linecap="square" stroke-miterlimit="4"/><polygon points="556,96.029,610.772,135.515,501.228,135.515" fill="none" vector-effect="non-scaling-stroke" stroke-width="10" stroke="rgb(0,0,0)" stroke-linejoin="miter" stroke-linecap="square" stroke-miterlimit="4"/><polygon points="677,96.029,731.772,135.515,622.228,135.515" fill="none" vector-effect="non-scaling-stroke" stroke-width="10" stroke="rgb(0,0,0)" stroke-linejoin="miter" stroke-linecap="square" stroke-miterlimit="4"/><polygon points="222.257,207.46,261.743,262.232,261.743,152.688" fill="none" vector-effect="non-scaling-stroke" stroke-width="10" stroke="rgb(0,0,0)" stroke-linejoin="miter" stroke-linecap="square" stroke-miterlimit="4"/><polygon points="261.743,267.148,222.257,321.92,222.257,212.376" fill="none" vector-effect="non-scaling-stroke" stroke-width="10" stroke="rgb(0,0,0)" stroke-linejoin="miter" stroke-linecap="square" stroke-miterlimit="4"/><polygon points="222.257,330.837,261.743,385.608,261.743,276.065" fill="none" vector-effect="non-scaling-stroke" stroke-width="10" stroke="rgb(0,0,0)" stroke-linejoin="miter" stroke-linecap="square" stroke-miterlimit="4"/><polygon points="261.743,394.525,222.257,449.297,222.257,339.753" fill="none" vector-effect="non-scaling-stroke" stroke-width="10" stroke="rgb(0,0,0)" stroke-linejoin="miter" stroke-linecap="square" stroke-miterlimit="4"/><polygon points="222.257,455.665,261.743,510.437,261.743,400.894" fill="none" vector-effect="non-scaling-stroke" stroke-width="10" stroke="rgb(0,0,0)" stroke-linejoin="miter" stroke-linecap="square" stroke-miterlimit="4"/><polygon points="261.743,516.806,222.257,571.578,222.257,462.034" fill="none" vector-effect="non-scaling-stroke" stroke-width="10" stroke="rgb(0,0,0)" stroke-linejoin="miter" stroke-linecap="square" stroke-miterlimit="4"/><polygon points="222.257,577.947,261.743,632.719,261.743,523.175" fill="none" vector-effect="non-scaling-stroke" stroke-width="10" stroke="rgb(0,0,0)" stroke-linejoin="miter" stroke-linecap="square" stroke-miterlimit="4"/><polygon points="261.743,639.087,222.257,693.859,222.257,584.316" fill="none" vector-effect="non-scaling-stroke" stroke-width="10" stroke="rgb(0,0,0)" stroke-linejoin="miter" stroke-linecap="square" stroke-miterlimit="4"/><line x1="72" y1="97.029" x2="160" y2="94" vector-effect="non-scaling-stroke" stroke-width="10" stroke="rgb(0,0,0)" stroke-linejoin="miter" stroke-linecap="square" stroke-miterlimit="3"/><line x1="314" y1="97.029" x2="677" y2="94" vector-effect="non-scaling-stroke" stroke-width="10" stroke="rgb(0,0,0)" stroke-linejoin="miter" stroke-linecap="square" stroke-miterlimit="3"/><circle vector-effect="non-scaling-stroke" cx="220.06665505031336" cy="70" r="13" fill="rgb(0,0,0)"/><polygon points="82,84.765,99.321,98,64.679,98" fill="rgb(0,0,0)"/><polygon points="435,83,452.321,96.235,417.679,96.235" fill="rgb(0,0,0)"/><polygon points="666.935,83,684.255,96.235,649.614,96.235" fill="rgb(0,0,0)"/><line x1="452.321" y1="428.279" x2="452.321" y2="707" vector-effect="non-scaling-stroke" stroke-width="7" stroke="rgb(0,0,0)" stroke-linejoin="miter" stroke-linecap="square" stroke-miterlimit="3"/><line x1="557.32" y1="428.279" x2="557.32" y2="707" vector-effect="non-scaling-stroke" stroke-width="7" stroke="rgb(0,0,0)" stroke-linejoin="miter" stroke-linecap="square" stroke-miterlimit="3"/><line x1="662.32" y1="428.279" x2="662.32" y2="707" vector-effect="non-scaling-stroke" stroke-width="7" stroke="rgb(0,0,0)" stroke-linejoin="miter" stroke-linecap="square" stroke-miterlimit="3"/><line x1="767.32" y1="428.279" x2="767.32" y2="707" vector-effect="non-scaling-stroke" stroke-width="7" stroke="rgb(0,0,0)" stroke-linejoin="miter" stroke-linecap="square" stroke-miterlimit="3"/><line x1="452.321" y1="626.64" x2="766.91" y2="626.64" vector-effect="non-scaling-stroke" stroke-width="7" stroke="rgb(0,0,0)" stroke-linejoin="miter" stroke-linecap="square" stroke-miterlimit="3"/><line x1="766.91" y1="568.539" x2="452.321" y2="568.539" vector-effect="non-scaling-stroke" stroke-width="7" stroke="rgb(0,0,0)" stroke-linejoin="miter" stroke-linecap="square" stroke-miterlimit="3"/><line x1="767.32" y1="510.437" x2="452.731" y2="510.437" vector-effect="non-scaling-stroke" stroke-width="7" stroke="rgb(0,0,0)" stroke-linejoin="miter" stroke-linecap="square" stroke-miterlimit="3"/><line x1="767.32" y1="456.437" x2="452.731" y2="456.437" vector-effect="non-scaling-stroke" stroke-width="7" stroke="rgb(0,0,0)" stroke-linejoin="miter" stroke-linecap="square" stroke-miterlimit="3"/><line x1="595" y1="385.608" x2="496.731" y2="385.437" vector-effect="non-scaling-stroke" stroke-width="7" stroke="rgb(0,0,0)" stroke-linejoin="miter" stroke-linecap="square" stroke-miterlimit="3"/><rect x="501.228" y="139.772" width="82.158" height="12.916" transform="matrix(1,0,0,1,0,0)" fill="rgb(0,0,0)"/><line x1="528.614" y1="150.772" x2="528.614" y2="305.222" vector-effect="non-scaling-stroke" stroke-width="1" stroke="rgb(0,0,0)" stroke-linejoin="miter" stroke-linecap="square" stroke-miterlimit="3"/><line x1="542.53" y1="355.842" x2="496.731" y2="385.437" vector-effect="non-scaling-stroke" stroke-width="1" stroke="rgb(0,0,0)" stroke-linejoin="miter" stroke-linecap="square" stroke-miterlimit="3"/><line x1="545.731" y1="355.842" x2="591.53" y2="385.437" vector-effect="non-scaling-stroke" stroke-width="1" stroke="rgb(0,0,0)" stroke-linejoin="miter" stroke-linecap="square" stroke-miterlimit="3"/><line x1="556" y1="150.772" x2="556" y2="305.222" vector-effect="non-scaling-stroke" stroke-width="1" stroke="rgb(0,0,0)" stroke-linejoin="miter" stroke-linecap="square" stroke-miterlimit="3"/><line x1="214.772" y1="57" x2="666.935" y2="83" vector-effect="non-scaling-stroke" stroke-width="1" stroke="rgb(0,0,0)" stroke-linejoin="miter" stroke-linecap="square" stroke-miterlimit="3"/><circle vector-effect="non-scaling-stroke" cx="542.3070342205324" cy="152.6882129277568" r="14.469581749049325" fill="rgb(0,0,0)"/><circle vector-effect="non-scaling-stroke" cx="542.5304182509507" cy="305.2224334600762" r="14.469581749049325" fill="rgb(0,0,0)"/><path d=" M 542.53 329.445 C 550.687 329.444 557.308 336.066 557.308 344.222 C 557.308 352.378 550.687 359 542.53 359 C 539.087 359 535.917 357.82 533.403 355.842" fill="none" vector-effect="non-scaling-stroke" stroke-width="5" stroke="rgb(0,0,0)" stroke-linejoin="miter" stroke-linecap="square" stroke-miterlimit="3"/><line x1="542.53" y1="309" x2="542.53" y2="329.445" vector-effect="non-scaling-stroke" stroke-width="5" stroke="rgb(0,0,0)" stroke-linejoin="miter" stroke-linecap="square" stroke-miterlimit="3"/><line x1="435" y1="83" x2="220.067" y2="57" vector-effect="non-scaling-stroke" stroke-width="1" stroke="rgb(0,0,0)" stroke-linejoin="miter" stroke-linecap="square" stroke-miterlimit="3"/><line x1="82" y1="84.765" x2="222.257" y2="57" vector-effect="non-scaling-stroke" stroke-width="1" stroke="rgb(0,0,0)" stroke-linejoin="miter" stroke-linecap="square" stroke-miterlimit="3"/></g></svg>